<?xml version="1.0" encoding="UTF-8"?><svg id="_лой_2" xmlns="http://www.w3.org/2000/svg" viewBox="0 0 42.47 57.98"><g id="Layer_1"><g><g><path d="M5.22,51.78c0-.75-.56-1.2-1.31-1.2H1.9v2.4H3.92c.75,0,1.31-.47,1.31-1.2M0,57.82v-8.91H4.17c1.94,0,2.99,1.31,2.99,2.87s-1.07,2.87-2.99,2.87H1.9v3.16H0Z"/><path d="M12.94,54.58c0-1-.6-1.87-1.66-1.87s-1.64,.87-1.64,1.87,.59,1.88,1.64,1.88,1.66-.87,1.66-1.88m-5.06,0c0-1.83,1.28-3.38,3.41-3.38s3.42,1.55,3.42,3.38-1.28,3.39-3.42,3.39-3.41-1.55-3.41-3.39"/><path d="M15.82,54.58c0-1.98,1.43-3.38,3.42-3.38,1.32,0,2.12,.57,2.55,1.16l-1.11,1.04c-.31-.45-.77-.69-1.36-.69-1.03,0-1.75,.75-1.75,1.87s.72,1.88,1.75,1.88c.59,0,1.05-.27,1.36-.69l1.11,1.03c-.43,.6-1.23,1.18-2.55,1.18-1.99,0-3.42-1.4-3.42-3.39"/></g><polygon points="24.62 57.82 24.62 52.85 22.81 52.85 22.81 51.37 28.13 51.37 28.13 52.85 26.33 52.85 26.33 57.82 24.62 57.82"/><path d="M32.12,52.55c-1.05,0-1.51,.79-1.59,1.43h3.18c-.04-.61-.47-1.43-1.59-1.43m-3.34,2.03c0-1.87,1.38-3.38,3.34-3.38s3.23,1.44,3.23,3.55v.37h-4.79c.11,.81,.76,1.5,1.86,1.5,.55,0,1.31-.24,1.72-.64l.75,1.09c-.64,.59-1.66,.9-2.66,.9-1.96,0-3.44-1.32-3.44-3.39"/><polygon points="40.58 57.82 39.11 55.64 37.63 57.82 35.74 57.82 38.03 54.51 35.88 51.37 37.77 51.37 39.11 53.36 40.43 51.37 42.33 51.37 40.16 54.51 42.47 57.82 40.58 57.82"/><polygon points="36.77 19.77 36.77 5.52 22.6 5.52 28.12 0 42.33 0 42.33 6.95 42.33 14.21 36.77 19.77"/><polygon points="42.33 42.31 28.12 42.31 22.6 36.79 36.77 36.79 36.77 22.56 42.33 28.12 42.33 42.31"/><polygon points=".02 14.21 .02 6.94 .02 0 14.23 0 19.75 5.52 5.58 5.52 5.58 19.77 .02 14.21"/><polygon points=".02 28.12 5.58 22.56 5.58 36.79 19.75 36.79 14.23 42.31 .02 42.31 .02 28.12"/></g></g></svg>